STARTFONT 2.1
FONT -DEC-Terminal-Bold-R-Normal--25-180-100-100-C-110-ISO8859-8
SIZE 18 100 100
FONTBOUNDINGBOX 14 27 0 -6

STARTPROPERTIES 25
CHARSET_REGISTRY "ISO8859"
CHARSET_ENCODING "8"
CAP_HEIGHT 15
X_HEIGHT 12
AVERAGE_WIDTH 110
FONTNAME_REGISTRY ""
FAMILY_NAME "Terminal"
FOUNDRY "DEC"
WEIGHT_NAME "Bold"
SETWIDTH_NAME "Normal"
SLANT "R"
ADD_STYLE_NAME ""
PIXEL_SIZE 25
RESOLUTION_X 100
RESOLUTION_Y 100
SPACING "C"
CHARSET_COLLECTIONS "ASCII ISO8859-8"
FULL_NAME "Terminal Bold"
COPYRIGHT "Copyright (c) 1988 Bitstream, Inc., Copyright 1991 Digital Equipment Corp."
QUAD_WIDTH 14
POINT_SIZE 180
WEIGHT 10
DEFAULT_CHAR 0
FONT_DESCENT 5
FONT_ASCENT 23
ENDPROPERTIES

CHARS 194

STARTCHAR space
ENCODING 32
SWIDTH 560 0
DWIDTH 14 0
BBX 6 15 4 0
BITMAP
00
00
00
00
00
00
00
00
00
00
00
00
00
00
00
ENDCHAR

STARTCHAR exclam
ENCODING 33
SWIDTH 560 0
DWIDTH 14 0
BBX 6 15 4 0
BITMAP
78
78
78
78
78
78
78
78
78
00
30
FC
FC
FC
30
ENDCHAR

STARTCHAR quotedbl
ENCODING 34
SWIDTH 560 0
DWIDTH 14 0
BBX 8 7 3 10
BITMAP
E7
E7
E7
E7
E7
E7
E7
ENDCHAR

STARTCHAR numbersign
ENCODING 35
SWIDTH 560 0
DWIDTH 14 0
BBX 14 19 0 -4
BITMAP
1CE0
1CE0
1CE0
1CE0
1CE0
FFFC
FFFC
FFFC
1CE0
1CE0
1CE0
FFFC
FFFC
FFFC
1CE0
1CE0
1CE0
1CE0
1CE0
ENDCHAR

STARTCHAR dollar
ENCODING 36
SWIDTH 560 0
DWIDTH 14 0
BBX 12 22 1 -4
BITMAP
0700
0700
0700
1F70
7FF0
7FF0
F0F0
F070
FC00
FF00
3FC0
0FE0
03F0
E0F0
F0F0
FFF0
FFE0
EF80
0E00
0E00
0E00
0E00
ENDCHAR

STARTCHAR percent
ENCODING 37
SWIDTH 560 0
DWIDTH 14 0
BBX 12 16 1 -1
BITMAP
7C00
FE00
E600
E630
E660
FEC0
7D80
0300
0C00
1BE0
37F0
6730
C730
0730
07F0
03E0
ENDCHAR

STARTCHAR ampersand
ENCODING 38
SWIDTH 560 0
DWIDTH 14 0
BBX 12 15 1 0
BITMAP
1F60
3FE0
3CE0
3C60
3C00
1E70
1E70
3F70
F7E0
F3E0
F3E0
F1E0
FFF0
FFF0
3F70
ENDCHAR

STARTCHAR quoteright
ENCODING 39
SWIDTH 560 0
DWIDTH 14 0
BBX 7 7 4 11
BITMAP
3E
3E
7C
78
F0
E0
C0
ENDCHAR

STARTCHAR parenleft
ENCODING 40
SWIDTH 560 0
DWIDTH 14 0
BBX 8 21 4 -3
BITMAP
07
0E
1E
3C
78
78
F0
F0
F0
F0
F0
F0
F0
F0
F0
78
78
3C
1E
0E
07
ENDCHAR

STARTCHAR parenright
ENCODING 41
SWIDTH 560 0
DWIDTH 14 0
BBX 8 21 2 -3
BITMAP
E0
70
78
38
3C
1E
1E
0F
0F
0F
0F
0F
0F
0F
0F
1E
1E
1C
3C
38
70
ENDCHAR

STARTCHAR asterisk
ENCODING 42
SWIDTH 560 0
DWIDTH 14 0
BBX 13 11 0 2
BITMAP
0700
0700
0700
EFB8
FFF8
7FF0
1FC0
1FC0
3DE0
78F0
7070
ENDCHAR

STARTCHAR plus
ENCODING 43
SWIDTH 560 0
DWIDTH 14 0
BBX 12 13 1 1
BITMAP
0F00
0F00
0F00
0F00
0F00
FFF0
FFF0
FFF0
0F00
0F00
0F00
0F00
0F00
ENDCHAR

STARTCHAR comma
ENCODING 44
SWIDTH 560 0
DWIDTH 14 0
BBX 6 8 4 -4
BITMAP
7C
7C
78
78
F0
F0
F0
E0
ENDCHAR

STARTCHAR minus
ENCODING 45
SWIDTH 560 0
DWIDTH 14 0
BBX 10 3 2 6
BITMAP
FFC0
FFC0
FFC0
ENDCHAR

STARTCHAR period
ENCODING 46
SWIDTH 560 0
DWIDTH 14 0
BBX 6 5 4 0
BITMAP
30
FC
FC
FC
30
ENDCHAR

STARTCHAR slash
ENCODING 47
SWIDTH 560 0
DWIDTH 14 0
BBX 11 20 1 -3
BITMAP
00E0
00E0
01E0
01C0
01C0
03C0
0380
0780
0700
0700
0E00
0E00
1E00
1C00
3C00
3800
7800
7000
F000
E000
ENDCHAR

STARTCHAR zero
ENCODING 48
SWIDTH 560 0
DWIDTH 14 0
BBX 11 15 2 0
BITMAP
0E00
3F80
7BC0
71C0
F1E0
F1E0
F1E0
F1E0
F1E0
F1E0
F1E0
71C0
7BC0
3F80
0E00
ENDCHAR

STARTCHAR one
ENCODING 49
SWIDTH 560 0
DWIDTH 14 0
BBX 11 15 2 0
BITMAP
0F00
3F00
FF00
FF00
CF00
0F00
0F00
0F00
0F00
0F00
0F00
0F00
7FE0
7FE0
7FE0
ENDCHAR

STARTCHAR two
ENCODING 50
SWIDTH 560 0
DWIDTH 14 0
BBX 11 15 2 0
BITMAP
3F80
FFC0
FFE0
E3E0
E1E0
03E0
07C0
0F80
1F00
3C00
78E0
F0E0
FFE0
FFE0
FFE0
ENDCHAR

STARTCHAR three
ENCODING 51
SWIDTH 560 0
DWIDTH 14 0
BBX 11 15 2 0
BITMAP
3F00
FF80
FFC0
E3C0
03C0
07C0
1F80
1FC0
1FE0
01E0
01E0
E3E0
FFE0
FFC0
3F00
ENDCHAR

STARTCHAR four
ENCODING 52
SWIDTH 560 0
DWIDTH 14 0
BBX 13 15 1 0
BITMAP
01E0
03E0
07E0
0FE0
1DE0
39E0
79E0
71E0
FFF8
FFF8
FFF8
01E0
01E0
01E0
01E0
ENDCHAR

STARTCHAR five
ENCODING 53
SWIDTH 560 0
DWIDTH 14 0
BBX 11 15 2 0
BITMAP
FFC0
FFC0
FFC0
F000
F000
FF80
FFC0
FFE0
E3E0
01E0
01E0
E3E0
FFE0
FFC0
7F80
ENDCHAR

STARTCHAR six
ENCODING 54
SWIDTH 560 0
DWIDTH 14 0
BBX 11 15 2 0
BITMAP
0FC0
3FC0
7FC0
7800
7000
F780
FFC0
FFE0
F1E0
E0E0
E0E0
F1E0
FFE0
7FC0
3F00
ENDCHAR

STARTCHAR seven
ENCODING 55
SWIDTH 560 0
DWIDTH 14 0
BBX 11 15 2 0
BITMAP
FFE0
FFE0
FFE0
E1E0
E1C0
01C0
03C0
03C0
0380
0780
0780
0F00
0F00
1E00
1E00
ENDCHAR

STARTCHAR eight
ENCODING 56
SWIDTH 560 0
DWIDTH 14 0
BBX 11 15 2 0
BITMAP
1F00
7FC0
7BC0
F1E0
F1E0
71C0
3F80
7FC0
F1E0
F1E0
F1E0
F1E0
FBE0
7FC0
3F80
ENDCHAR

STARTCHAR nine
ENCODING 57
SWIDTH 560 0
DWIDTH 14 0
BBX 11 15 2 0
BITMAP
1F00
7F80
7FC0
F3C0
E1E0
E1E0
F3E0
FFE0
3FE0
3DE0
01C0
07C0
7F80
7F00
7C00
ENDCHAR

STARTCHAR colon
ENCODING 58
SWIDTH 560 0
DWIDTH 14 0
BBX 6 12 4 0
BITMAP
30
FC
FC
FC
30
00
00
30
FC
FC
FC
30
ENDCHAR

STARTCHAR semicolon
ENCODING 59
SWIDTH 560 0
DWIDTH 14 0
BBX 7 16 3 -4
BITMAP
18
7E
7E
7E
18
00
00
00
7C
7C
78
78
F0
F0
F0
E0
ENDCHAR

STARTCHAR less
ENCODING 60
SWIDTH 560 0
DWIDTH 14 0
BBX 11 13 1 1
BITMAP
0060
01E0
03E0
0F80
3E00
F800
F000
F800
3E00
1F80
07E0
01E0
0060
ENDCHAR

STARTCHAR equal
ENCODING 61
SWIDTH 560 0
DWIDTH 14 0
BBX 11 9 1 3
BITMAP
FFE0
FFE0
FFE0
0000
0000
0000
FFE0
FFE0
FFE0
ENDCHAR

STARTCHAR greater
ENCODING 62
SWIDTH 560 0
DWIDTH 14 0
BBX 11 13 2 1
BITMAP
C000
F000
FC00
3F00
0F80
03E0
01E0
03E0
0F80
3E00
F800
F000
C000
ENDCHAR

STARTCHAR question
ENCODING 63
SWIDTH 560 0
DWIDTH 14 0
BBX 10 15 2 0
BITMAP
7F00
FFC0
FFC0
F3C0
03C0
0FC0
1F80
3E00
3C00
0000
1800
7E00
7E00
7E00
1800
ENDCHAR

STARTCHAR at
ENCODING 64
SWIDTH 560 0
DWIDTH 14 0
BBX 13 19 1 -3
BITMAP
0F80
3FC0
70E0
6060
E070
E3F0
E7F0
EE70
EE70
EE70
EE70
EFF8
E3B8
E000
F000
7830
3FF0
1FE0
0780
ENDCHAR

STARTCHAR A
ENCODING 65
SWIDTH 560 0
DWIDTH 14 0
BBX 14 15 0 0
BITMAP
0FE0
0FE0
0FE0
0FE0
1FF0
1CF0
1CF0
1CF0
3FF8
3FF8
3FF8
7078
FCFC
FCFC
FCFC
ENDCHAR

STARTCHAR B
ENCODING 66
SWIDTH 560 0
DWIDTH 14 0
BBX 12 15 1 0
BITMAP
FFC0
FFE0
FFF0
78F0
78F0
78E0
7FC0
7FE0
78F0
78F0
78F0
78F0
FFF0
FFE0
FFC0
ENDCHAR

STARTCHAR C
ENCODING 67
SWIDTH 560 0
DWIDTH 14 0
BBX 11 15 2 0
BITMAP
1E60
7FE0
7FE0
F8E0
F0E0
F000
F000
F000
F000
F000
F000
F8E0
7FE0
7FE0
1F80
ENDCHAR

STARTCHAR D
ENCODING 68
SWIDTH 560 0
DWIDTH 14 0
BBX 12 15 1 0
BITMAP
FF80
FFE0
FFE0
79F0
78F0
78F0
78F0
78F0
78F0
78F0
78F0
79F0
FFE0
FFE0
FF80
ENDCHAR

STARTCHAR E
ENCODING 69
SWIDTH 560 0
DWIDTH 14 0
BBX 11 15 2 0
BITMAP
FFE0
FFE0
FFE0
78E0
7800
7800
7F80
7F80
7F80
7800
7800
78E0
FFE0
FFE0
FFE0
ENDCHAR

STARTCHAR F
ENCODING 70
SWIDTH 560 0
DWIDTH 14 0
BBX 12 15 1 0
BITMAP
FFF0
FFF0
FFF0
3C70
3C00
3C00
3FC0
3FC0
3FC0
3C00
3C00
3C00
FF00
FF00
FF00
ENDCHAR

STARTCHAR G
ENCODING 71
SWIDTH 560 0
DWIDTH 14 0
BBX 12 15 1 0
BITMAP
1F30
7FF0
7FF0
F870
F070
F000
F000
F3F0
F3F0
F3F0
F0F0
F8F0
7FE0
7FE0
1F80
ENDCHAR

STARTCHAR H
ENCODING 72
SWIDTH 560 0
DWIDTH 14 0
BBX 13 15 1 0
BITMAP
F8F8
F8F8
F8F8
78F0
78F0
7FF0
7FF0
7FF0
7FF0
78F0
78F0
78F0
F8F8
F8F8
F8F8
ENDCHAR

STARTCHAR I
ENCODING 73
SWIDTH 560 0
DWIDTH 14 0
BBX 10 15 2 0
BITMAP
FFC0
FFC0
FFC0
1E00
1E00
1E00
1E00
1E00
1E00
1E00
1E00
1E00
FFC0
FFC0
FFC0
ENDCHAR

STARTCHAR J
ENCODING 74
SWIDTH 560 0
DWIDTH 14 0
BBX 12 15 1 0
BITMAP
0FF0
0FF0
0FF0
01E0
01E0
01E0
01E0
01E0
E1E0
E1E0
E1E0
F1E0
FFC0
7FC0
1F00
ENDCHAR

STARTCHAR K
ENCODING 75
SWIDTH 560 0
DWIDTH 14 0
BBX 12 15 1 0
BITMAP
F9F0
F9F0
F9F0
7BC0
7B80
7F00
7F00
7F80
7F80
7BC0
7BC0
79E0
F9F0
F9F0
F9F0
ENDCHAR

STARTCHAR L
ENCODING 76
SWIDTH 560 0
DWIDTH 14 0
BBX 12 15 1 0
BITMAP
FF00
FF00
FF00
3C00
3C00
3C00
3C00
3C00
3C70
3C70
3C70
3C70
FFF0
FFF0
FFF0
ENDCHAR

STARTCHAR M
ENCODING 77
SWIDTH 560 0
DWIDTH 14 0
BBX 13 15 1 0
BITMAP
F078
F078
F8F8
78F0
7DF0
7FF0
7FF0
7FF0
7770
7770
7270
7270
F078
F078
F078
ENDCHAR

STARTCHAR N
ENCODING 78
SWIDTH 560 0
DWIDTH 14 0
BBX 11 15 2 0
BITMAP
F1E0
F1E0
F1E0
79C0
79C0
7DC0
7FC0
7FC0
7FC0
77C0
77C0
73C0
F3C0
F1C0
F1C0
ENDCHAR

STARTCHAR O
ENCODING 79
SWIDTH 560 0
DWIDTH 14 0
BBX 12 15 1 0
BITMAP
1F80
7FE0
7FE0
F9F0
F0F0
F0F0
F0F0
F0F0
F0F0
F0F0
F0F0
F9F0
7FE0
7FE0
1F80
ENDCHAR

STARTCHAR P
ENCODING 80
SWIDTH 560 0
DWIDTH 14 0
BBX 12 15 1 0
BITMAP
FFC0
FFE0
FFF0
78F0
78F0
78F0
78F0
7FF0
7FE0
7FC0
7800
7800
FE00
FE00
FE00
ENDCHAR

STARTCHAR Q
ENCODING 81
SWIDTH 560 0
DWIDTH 14 0
BBX 12 19 1 -4
BITMAP
1F80
7FE0
7FE0
F9F0
F0F0
F0F0
F0F0
F0F0
F0F0
F0F0
F0F0
F9F0
7FE0
7FE0
1F80
1C00
3FE0
3FE0
3BE0
ENDCHAR

STARTCHAR R
ENCODING 82
SWIDTH 560 0
DWIDTH 14 0
BBX 13 15 1 0
BITMAP
FFC0
FFE0
FFF0
78F0
78F0
78F0
7FE0
7FC0
7FC0
79E0
79E0
78F0
F8F8
F878
F878
ENDCHAR

STARTCHAR S
ENCODING 83
SWIDTH 560 0
DWIDTH 14 0
BBX 10 15 2 0
BITMAP
3CC0
7FC0
FFC0
F3C0
F0C0
F800
FE00
7F80
1FC0
07C0
C3C0
E3C0
FFC0
FF80
DF00
ENDCHAR

STARTCHAR T
ENCODING 84
SWIDTH 560 0
DWIDTH 14 0
BBX 14 15 0 0
BITMAP
FFFC
FFFC
FFFC
E79C
E79C
E79C
E79C
0780
0780
0780
0780
0780
1FE0
1FE0
1FE0
ENDCHAR

STARTCHAR U
ENCODING 85
SWIDTH 560 0
DWIDTH 14 0
BBX 12 15 1 0
BITMAP
F9F0
F9F0
F9F0
79E0
79E0
79E0
79E0
79E0
79E0
79E0
79E0
79E0
7FE0
3FC0
1F80
ENDCHAR

STARTCHAR V
ENCODING 86
SWIDTH 560 0
DWIDTH 14 0
BBX 12 15 1 0
BITMAP
F9F0
F9F0
F9F0
79E0
79E0
79E0
79E0
39C0
39C0
39C0
3FC0
1F80
1F80
0F00
0F00
ENDCHAR

STARTCHAR W
ENCODING 87
SWIDTH 560 0
DWIDTH 14 0
BBX 14 15 0 0
BITMAP
FCFC
FCFC
FCFC
7038
7038
7338
7338
7338
77B8
7FF8
3FF0
3FF0
3CF0
1CE0
1CE0
ENDCHAR

STARTCHAR X
ENCODING 88
SWIDTH 560 0
DWIDTH 14 0
BBX 12 15 1 0
BITMAP
F9F0
F9F0
F9F0
70E0
79E0
3FC0
1F80
0F00
0F80
1F80
3FC0
79E0
F0F0
F0F0
F0F0
ENDCHAR

STARTCHAR Y
ENCODING 89
SWIDTH 560 0
DWIDTH 14 0
BBX 12 15 1 0
BITMAP
F8F0
F8F0
F8F0
78E0
3DE0
3DC0
1FC0
1F80
0F00
0F00
0F00
0F00
1F80
1F80
1F80
ENDCHAR

STARTCHAR Z
ENCODING 90
SWIDTH 560 0
DWIDTH 14 0
BBX 10 15 2 0
BITMAP
FFC0
FFC0
FFC0
C780
C780
0F00
0F00
1E00
1E00
3C00
7CC0
78C0
FFC0
FFC0
FFC0
ENDCHAR

STARTCHAR bracketleft
ENCODING 91
SWIDTH 560 0
DWIDTH 14 0
BBX 7 22 4 -4
BITMAP
FE
FE
FE
F0
F0
F0
F0
F0
F0
F0
F0
F0
F0
F0
F0
F0
F0
F0
F0
FE
FE
FE
ENDCHAR

STARTCHAR backslash
ENCODING 92
SWIDTH 560 0
DWIDTH 14 0
BBX 10 20 2 -3
BITMAP
E000
E000
F000
7000
7000
7800
3800
3C00
3C00
1C00
1E00
0E00
0F00
0700
0780
0780
0380
03C0
01C0
01C0
ENDCHAR

STARTCHAR bracketright
ENCODING 93
SWIDTH 560 0
DWIDTH 14 0
BBX 7 22 3 -4
BITMAP
FE
FE
FE
1E
1E
1E
1E
1E
1E
1E
1E
1E
1E
1E
1E
1E
1E
1E
1E
FE
FE
FE
ENDCHAR

STARTCHAR asciicircum
ENCODING 94
SWIDTH 560 0
DWIDTH 14 0
BBX 10 6 2 5
BITMAP
0C00
1E00
3F00
7380
E1C0
C0C0
ENDCHAR

STARTCHAR underscore
ENCODING 95
SWIDTH 560 0
DWIDTH 14 0
BBX 13 3 1 0
BITMAP
FFF8
FFF8
FFF8
ENDCHAR

STARTCHAR quoteleft
ENCODING 96
SWIDTH 560 0
DWIDTH 14 0
BBX 9 7 2 11
BITMAP
FC00
7C00
3E00
1E00
0F00
0780
0300
ENDCHAR

STARTCHAR a
ENCODING 97
SWIDTH 560 0
DWIDTH 14 0
BBX 12 12 1 0
BITMAP
3F80
7FC0
71E0
00E0
1FE0
7FE0
FFE0
F1E0
F1E0
FFF0
FFF0
3EF0
ENDCHAR

STARTCHAR b
ENCODING 98
SWIDTH 560 0
DWIDTH 14 0
BBX 13 16 0 0
BITMAP
FC00
FC00
FC00
3C00
3DE0
3FF0
3FF0
3C78
3C78
3C78
3C78
3C78
3CF8
FFF0
FFF0
FDE0
ENDCHAR

STARTCHAR c
ENCODING 99
SWIDTH 560 0
DWIDTH 14 0
BBX 12 12 1 0
BITMAP
0FB0
3FF0
7CF0
7870
F070
F000
F000
F000
7870
7CF0
3FE0
0FC0
ENDCHAR

STARTCHAR d
ENCODING 100
SWIDTH 560 0
DWIDTH 14 0
BBX 12 16 1 0
BITMAP
03E0
03E0
03E0
01E0
1FE0
7FE0
7FE0
F1E0
F1E0
F1E0
F1E0
F1E0
F1E0
7FF0
7FF0
1EF0
ENDCHAR

STARTCHAR e
ENCODING 101
SWIDTH 560 0
DWIDTH 14 0
BBX 11 12 1 0
BITMAP
1F00
7FC0
71C0
F1E0
F1E0
FFE0
FFC0
F000
F8E0
7FE0
7FE0
1F80
ENDCHAR

STARTCHAR f
ENCODING 102
SWIDTH 560 0
DWIDTH 14 0
BBX 11 16 1 0
BITMAP
0FE0
1FE0
1E00
1E00
FFE0
FFE0
FFE0
1E00
1E00
1E00
1E00
1E00
1E00
FFC0
FFC0
FFC0
ENDCHAR

STARTCHAR g
ENCODING 103
SWIDTH 560 0
DWIDTH 14 0
BBX 11 17 1 -5
BITMAP
1EE0
7FE0
7FE0
F9E0
F1E0
F1E0
F1E0
F1E0
F9E0
7FE0
7FE0
1FE0
01E0
01E0
03E0
7FC0
7F80
ENDCHAR

STARTCHAR h
ENCODING 104
SWIDTH 560 0
DWIDTH 14 0
BBX 12 16 1 0
BITMAP
F800
F800
F800
7800
7B80
7FC0
7FE0
79E0
79E0
79E0
79E0
79E0
79E0
F9F0
F9F0
F9F0
ENDCHAR

STARTCHAR i
ENCODING 105
SWIDTH 560 0
DWIDTH 14 0
BBX 10 18 2 0
BITMAP
1E00
1E00
1E00
1E00
0000
0000
FE00
FE00
1E00
1E00
1E00
1E00
1E00
1E00
1E00
FFC0
FFC0
FFC0
ENDCHAR

STARTCHAR j
ENCODING 106
SWIDTH 560 0
DWIDTH 14 0
BBX 9 23 1 -5
BITMAP
0780
0780
0780
0780
0000
0000
7F80
7F80
0780
0780
0780
0780
0780
0780
0780
0780
0780
0780
0780
0780
0F80
FF00
FC00
ENDCHAR

STARTCHAR k
ENCODING 107
SWIDTH 560 0
DWIDTH 14 0
BBX 12 16 1 0
BITMAP
F800
F800
F800
7800
78F0
78F0
79F0
7BC0
7F80
7F00
7F00
7F80
7BC0
FBF0
F9F0
F9F0
ENDCHAR

STARTCHAR l
ENCODING 108
SWIDTH 560 0
DWIDTH 14 0
BBX 10 16 2 0
BITMAP
FE00
FE00
FE00
1E00
1E00
1E00
1E00
1E00
1E00
1E00
1E00
1E00
1E00
FFC0
FFC0
FFC0
ENDCHAR

STARTCHAR m
ENCODING 109
SWIDTH 560 0
DWIDTH 14 0
BBX 14 12 0 0
BITMAP
F998
FFFC
7FFC
7DDC
799C
799C
799C
799C
799C
F99C
F99C
F99C
ENDCHAR

STARTCHAR n
ENCODING 110
SWIDTH 560 0
DWIDTH 14 0
BBX 12 12 1 0
BITMAP
FB80
FFC0
7FE0
79E0
79E0
79E0
79E0
79E0
79E0
F9F0
F9F0
F9F0
ENDCHAR

STARTCHAR o
ENCODING 111
SWIDTH 600 0
DWIDTH 15 0
BBX 13 12 1 0
BITMAP
0F80
3FE0
7FF0
78F0
F078
F078
F078
F078
78F0
7FF0
3FE0
0F80
ENDCHAR

STARTCHAR p
ENCODING 112
SWIDTH 560 0
DWIDTH 14 0
BBX 13 17 0 -5
BITMAP
FDE0
FFF0
3FF8
3C78
3C78
3C78
3C78
3C78
3C78
3FF8
3FF0
3DC0
3C00
3C00
FF00
FF00
FF00
ENDCHAR

STARTCHAR q
ENCODING 113
SWIDTH 560 0
DWIDTH 14 0
BBX 12 17 1 -5
BITMAP
1CF0
7FF0
7FF0
F1E0
F1E0
F1E0
F1E0
F1E0
F1E0
7FE0
7FE0
1DE0
01E0
01E0
07F0
07F0
07F0
ENDCHAR

STARTCHAR r
ENCODING 114
SWIDTH 560 0
DWIDTH 14 0
BBX 12 12 1 0
BITMAP
FCF0
FFF0
1F70
1E70
1E00
1E00
1E00
1E00
1E00
FFC0
FFC0
FFC0
ENDCHAR

STARTCHAR s
ENCODING 115
SWIDTH 560 0
DWIDTH 14 0
BBX 10 12 2 0
BITMAP
3EC0
7FC0
FFC0
F0C0
FC00
7F00
3F80
07C0
C3C0
FFC0
FF80
DF00
ENDCHAR

STARTCHAR t
ENCODING 116
SWIDTH 560 0
DWIDTH 14 0
BBX 12 16 1 0
BITMAP
1E00
1E00
1E00
1E00
FFE0
FFE0
FFE0
1E00
1E00
1E00
1E00
1E00
1F10
1FF0
0FF0
07E0
ENDCHAR

STARTCHAR u
ENCODING 117
SWIDTH 560 0
DWIDTH 14 0
BBX 13 12 0 0
BITMAP
FDF0
FDF0
3CF0
3CF0
3CF0
3CF0
3CF0
3CF0
3CF0
3FF8
3FF8
1EF8
ENDCHAR

STARTCHAR v
ENCODING 118
SWIDTH 560 0
DWIDTH 14 0
BBX 13 12 0 0
BITMAP
FCF8
FCF8
3CF0
3CF0
3CF0
1CE0
1CE0
1FE0
0FC0
0FC0
0FC0
0780
ENDCHAR

STARTCHAR w
ENCODING 119
SWIDTH 560 0
DWIDTH 14 0
BBX 14 12 0 0
BITMAP
F87C
F87C
3B70
3B70
3B70
3B70
3FF0
3FF0
3FF0
1CE0
1CE0
1CE0
ENDCHAR

STARTCHAR x
ENCODING 120
SWIDTH 560 0
DWIDTH 14 0
BBX 14 12 0 0
BITMAP
FCFC
FCFC
1CE0
1CE0
1FE0
0FC0
0FC0
0FC0
1CE0
FCFC
FCFC
FCFC
ENDCHAR

STARTCHAR y
ENCODING 121
SWIDTH 560 0
DWIDTH 14 0
BBX 14 17 0 -5
BITMAP
FCFC
FCFC
3CF0
3CF0
3CE0
1CE0
1CE0
1FC0
0FC0
0F80
0F80
0780
0700
0F00
0F00
3FC0
3FC0
ENDCHAR

STARTCHAR z
ENCODING 122
SWIDTH 560 0
DWIDTH 14 0
BBX 10 12 2 0
BITMAP
FFC0
FFC0
FFC0
C780
CF00
0E00
1C00
3CC0
78C0
FFC0
FFC0
FFC0
ENDCHAR

STARTCHAR braceleft
ENCODING 123
SWIDTH 560 0
DWIDTH 14 0
BBX 9 22 3 -4
BITMAP
0F80
1F80
3F80
3C00
3C00
3C00
3C00
3C00
7800
7800
F000
7800
7800
3C00
3C00
3C00
3C00
3C00
3C00
3F80
1F80
0F80
ENDCHAR

STARTCHAR bar
ENCODING 124
SWIDTH 560 0
DWIDTH 14 0
BBX 4 24 5 -5
BITMAP
F0
F0
F0
F0
F0
F0
F0
F0
F0
F0
F0
F0
F0
F0
F0
F0
F0
F0
F0
F0
F0
F0
F0
F0
ENDCHAR

STARTCHAR braceright
ENCODING 125
SWIDTH 560 0
DWIDTH 14 0
BBX 9 22 2 -4
BITMAP
F800
FC00
FE00
1E00
1E00
1E00
1E00
1E00
1E00
0F00
0F00
0780
0F00
0F00
1E00
1E00
1E00
1E00
1E00
FE00
FC00
F800
ENDCHAR

STARTCHAR asciitilde
ENCODING 126
SWIDTH 560 0
DWIDTH 14 0
BBX 11 4 1 6
BITMAP
3860
7E60
CFE0
C3C0
ENDCHAR

STARTCHAR unknown_0x80
ENCODING 128
SWIDTH 560 0
DWIDTH 14 0
BBX 13 15 1 0
BITMAP
1FF8
3FF8
3FF8
F398
F380
F380
F3F0
F3F0
F3F0
F380
F380
F398
3FF8
3FF8
1FF8
ENDCHAR

STARTCHAR unknown_0x81
ENCODING 129
SWIDTH 560 0
DWIDTH 14 0
BBX 13 12 1 0
BITMAP
1EF0
3FF8
FFF8
F388
F3F8
F3F8
F3F0
F380
F380
3FF0
3FF0
1EF0
ENDCHAR

STARTCHAR unknown_0x82
ENCODING 130
SWIDTH 560 0
DWIDTH 14 0
BBX 12 21 1 0
BITMAP
F0F0
F0F0
F0F0
0000
0000
0000
F8F0
F8F0
F8F0
38E0
3DE0
1DC0
1FC0
0F80
0F00
0F00
0F00
0F00
3FE0
3FE0
3FE0
ENDCHAR

STARTCHAR unknown_0x9f
ENCODING 159
SWIDTH 560 0
DWIDTH 14 0
BBX 12 24 0 -3
BITMAP
1FF0
1FF0
7FF0
FFF0
FFF0
F870
F870
F870
F870
FE00
7F00
1F80
1F80
0FE0
07E0
07E0
07E0
0000
07E0
07E0
0FF0
0FF0
07E0
07E0
ENDCHAR

STARTCHAR unknown_0xa1
ENCODING 161
SWIDTH 560 0
DWIDTH 14 0
BBX 6 16 4 -4
BITMAP
30
FC
FC
FC
30
00
78
78
78
78
78
78
78
78
78
78
ENDCHAR

STARTCHAR cent
ENCODING 162
SWIDTH 560 0
DWIDTH 14 0
BBX 11 17 1 -2
BITMAP
0600
0600
0600
3FE0
7FE0
F8E0
F0E0
F000
F000
F000
F8E0
7FE0
7FE0
1F80
0600
0600
0600
ENDCHAR

STARTCHAR sterling
ENCODING 163
SWIDTH 560 0
DWIDTH 14 0
BBX 13 15 1 0
BITMAP
1FE0
3FE0
3CE0
38E0
3C00
1C00
FFC0
FFC0
1E00
1E00
1E00
3C38
7FF8
7FF0
79E0
ENDCHAR

STARTCHAR currency
ENCODING 164
SWIDTH 560 0
DWIDTH 14 0
BBX 12 13 1 1
BITMAP
E070
E070
6F60
3FC0
79E0
79E0
79E0
79E0
79E0
3FC0
6F60
E070
E070
ENDCHAR

STARTCHAR yen
ENCODING 165
SWIDTH 560 0
DWIDTH 14 0
BBX 14 15 0 0
BITMAP
FCFC
FCFC
FCFC
7870
3C60
FEFC
FFFC
0FC0
0780
FFFC
FFFC
0780
1FE0
1FE0
1FE0
ENDCHAR

STARTCHAR brokenbar
ENCODING 166
SWIDTH 560 0
DWIDTH 14 0
BBX 4 23 5 -5
BITMAP
F0
F0
F0
F0
F0
F0
F0
F0
F0
00
00
00
00
00
F0
F0
F0
F0
F0
F0
F0
F0
F0
ENDCHAR

STARTCHAR section
ENCODING 167
SWIDTH 560 0
DWIDTH 14 0
BBX 13 18 1 -3
BITMAP
07F0
1FF0
3FF0
7C30
FE00
EF00
E780
F3C0
78E0
3C70
1E38
0F38
03F0
01E0
60E0
7FE0
7FC0
7F80
ENDCHAR

STARTCHAR dieresis
ENCODING 168
SWIDTH 560 0
DWIDTH 14 0
BBX 10 4 2 14
BITMAP
6180
F3C0
F3C0
6180
ENDCHAR

STARTCHAR copyright
ENCODING 169
SWIDTH 560 0
DWIDTH 14 0
BBX 14 16 0 0
BITMAP
1FE0
7FF8
7038
7038
E79C
EF9C
EE1C
EE1C
EE1C
EE1C
EF9C
E79C
7038
7038
7FF8
1FE0
ENDCHAR

STARTCHAR multiply
ENCODING 170
SWIDTH 560 0
DWIDTH 14 0
BBX 10 15 2 3
BITMAP
7E00
7F00
FF80
0380
7F80
7F80
F380
F380
F380
FFC0
7DC0
0000
FFC0
FFC0
FFC0
ENDCHAR

STARTCHAR guillemotleft
ENCODING 171
SWIDTH 560 0
DWIDTH 14 0
BBX 12 9 1 0
BITMAP
0C30
1C70
3CF0
79E0
F3C0
79E0
3CF0
1C70
0C30
ENDCHAR

STARTCHAR logicalnot
ENCODING 172
SWIDTH 560 0
DWIDTH 14 0
BBX 11 8 1 3
BITMAP
FFE0
FFE0
FFE0
00E0
00E0
00E0
00E0
00E0
ENDCHAR

STARTCHAR hyphen
ENCODING 173
SWIDTH 560 0
DWIDTH 14 0
BBX 9 3 2 5
BITMAP
FF80
FF80
FF80
ENDCHAR

STARTCHAR registered
ENCODING 174
SWIDTH 560 0
DWIDTH 14 0
BBX 14 16 0 0
BITMAP
0FC0
7FF8
7038
E01C
EF9C
ECDC
ECDC
EDDC
EF9C
ED9C
ECDC
ECFC
E01C
7038
7FF8
1FE0
ENDCHAR

STARTCHAR macron
ENCODING 175
SWIDTH 560 0
DWIDTH 14 0
BBX 9 3 3 15
BITMAP
FF80
FF80
FF80
ENDCHAR

STARTCHAR degree
ENCODING 176
SWIDTH 560 0
DWIDTH 14 0
BBX 9 8 2 10
BITMAP
3E00
7F00
E380
E380
E380
E380
7F00
3E00
ENDCHAR

STARTCHAR plusminus
ENCODING 177
SWIDTH 560 0
DWIDTH 14 0
BBX 11 15 1 0
BITMAP
0E00
0E00
0E00
0E00
FFE0
FFE0
FFE0
0E00
0E00
0E00
0E00
0000
FFE0
FFE0
FFE0
ENDCHAR

STARTCHAR twosuperior
ENCODING 178
SWIDTH 560 0
DWIDTH 14 0
BBX 8 10 4 8
BITMAP
7E
7E
FF
0F
1E
1E
78
FF
FF
FF
ENDCHAR

STARTCHAR threesuperior
ENCODING 179
SWIDTH 560 0
DWIDTH 14 0
BBX 8 10 4 8
BITMAP
7E
7E
FF
0F
1E
1E
0F
FF
7E
7E
ENDCHAR

STARTCHAR acute
ENCODING 180
SWIDTH 560 0
DWIDTH 14 0
BBX 7 5 5 14
BITMAP
1E
3E
3C
70
E0
ENDCHAR

STARTCHAR mu
ENCODING 181
SWIDTH 560 0
DWIDTH 14 0
BBX 13 17 0 -5
BITMAP
3C78
3C78
3C78
3C78
3C78
3CF0
78F0
78F0
79F0
7FF8
FFF8
FE78
F000
F000
F000
F000
F000
ENDCHAR

STARTCHAR paragraph
ENCODING 182
SWIDTH 560 0
DWIDTH 14 0
BBX 13 18 1 -3
BITMAP
1FF8
3FF8
7E60
FE60
FE60
FE60
FE60
7E60
3E60
1E60
0660
0660
0660
0660
0660
1E78
1E78
1E78
ENDCHAR

STARTCHAR periodcentered
ENCODING 183
SWIDTH 560 0
DWIDTH 14 0
BBX 5 5 5 4
BITMAP
70
F8
F8
F8
70
ENDCHAR

STARTCHAR cedilla
ENCODING 184
SWIDTH 560 0
DWIDTH 14 0
BBX 7 6 3 -6
BITMAP
30
3C
3E
0E
FE
FC
ENDCHAR

STARTCHAR onesuperior
ENCODING 185
SWIDTH 560 0
DWIDTH 14 0
BBX 8 10 3 8
BITMAP
1C
7C
FC
DC
1C
1C
1C
7F
7F
7F
ENDCHAR

STARTCHAR divide
ENCODING 186
SWIDTH 560 0
DWIDTH 14 0
BBX 10 15 2 3
BITMAP
3F00
7F80
7F80
F3C0
F3C0
F3C0
F3C0
F3C0
7FC0
7F80
3F00
0000
FFC0
FFC0
FFC0
ENDCHAR

STARTCHAR guillemotright
ENCODING 187
SWIDTH 560 0
DWIDTH 14 0
BBX 12 9 1 0
BITMAP
C300
E380
F3C0
79E0
3CF0
79E0
F3C0
E380
C300
ENDCHAR

STARTCHAR onequarter
ENCODING 188
SWIDTH 560 0
DWIDTH 14 0
BBX 14 21 0 -5
BITMAP
1C00
7C00
FC00
DC00
1C00
1C00
7F00
7F00
7F38
0078
01E0
0780
1E38
7878
70F8
01B8
0338
03FC
03FC
0038
0038
ENDCHAR

STARTCHAR onehalf
ENCODING 189
SWIDTH 560 0
DWIDTH 14 0
BBX 14 21 0 -5
BITMAP
1C00
7C00
FC00
DC00
1C00
1C00
7F00
7F18
7F78
01E0
0380
0E00
3DF8
73FC
639C
003C
0078
00F0
01E0
03FC
03FC
ENDCHAR

STARTCHAR threequarters
ENCODING 190
SWIDTH 560 0
DWIDTH 14 0
BBX 13 21 1 -5
BITMAP
3C00
FE00
CE00
0E00
3C00
0E00
CE00
FE30
7C70
01E0
0780
1E00
7C70
F0F0
C1F0
0370
0670
07F8
07F8
0070
0070
ENDCHAR

STARTCHAR unknown_0xbf
ENCODING 191
SWIDTH 560 0
DWIDTH 14 0
BBX 9 16 2 -4
BITMAP
0000
0000
0000
0000
0000
0000
0000
0000
0000
0000
0000
0000
0000
0000
0000
0000
ENDCHAR

STARTCHAR unknown_0xc0
ENCODING 192
SWIDTH 560 0
DWIDTH 14 0
BBX 14 21 0 0
BITMAP
0000
0000
0000
0000
0000
0000
0000
0000
0000
0000
0000
0000
0000
0000
0000
0000
0000
0000
0000
0000
0000
ENDCHAR

STARTCHAR unknown_0xc1
ENCODING 193
SWIDTH 560 0
DWIDTH 14 0
BBX 14 21 0 0
BITMAP
0000
0000
0000
0000
0000
0000
0000
0000
0000
0000
0000
0000
0000
0000
0000
0000
0000
0000
0000
0000
0000
ENDCHAR

STARTCHAR unknown_0xc2
ENCODING 194
SWIDTH 560 0
DWIDTH 14 0
BBX 14 21 0 0
BITMAP
0000
0000
0000
0000
0000
0000
0000
0000
0000
0000
0000
0000
0000
0000
0000
0000
0000
0000
0000
0000
0000
ENDCHAR

STARTCHAR unknown_0xc3
ENCODING 195
SWIDTH 560 0
DWIDTH 14 0
BBX 14 20 0 0
BITMAP
0000
0000
0000
0000
0000
0000
0000
0000
0000
0000
0000
0000
0000
0000
0000
0000
0000
0000
0000
0000
ENDCHAR

STARTCHAR unknown_0xc4
ENCODING 196
SWIDTH 560 0
DWIDTH 14 0
BBX 14 20 0 0
BITMAP
0000
0000
0000
0000
0000
0000
0000
0000
0000
0000
0000
0000
0000
0000
0000
0000
0000
0000
0000
0000
ENDCHAR

STARTCHAR unknown_0xc5
ENCODING 197
SWIDTH 560 0
DWIDTH 14 0
BBX 14 21 0 0
BITMAP
0000
0000
0000
0000
0000
0000
0000
0000
0000
0000
0000
0000
0000
0000
0000
0000
0000
0000
0000
0000
0000
ENDCHAR

STARTCHAR unknown_0xc6
ENCODING 198
SWIDTH 560 0
DWIDTH 14 0
BBX 13 15 0 0
BITMAP
0000
0000
0000
0000
0000
0000
0000
0000
0000
0000
0000
0000
0000
0000
0000
ENDCHAR

STARTCHAR unknown_0xc7
ENCODING 199
SWIDTH 560 0
DWIDTH 14 0
BBX 12 21 1 -6
BITMAP
0000
0000
0000
0000
0000
0000
0000
0000
0000
0000
0000
0000
0000
0000
0000
0000
0000
0000
0000
0000
0000
ENDCHAR

STARTCHAR unknown_0xc8
ENCODING 200
SWIDTH 560 0
DWIDTH 14 0
BBX 12 21 1 0
BITMAP
0000
0000
0000
0000
0000
0000
0000
0000
0000
0000
0000
0000
0000
0000
0000
0000
0000
0000
0000
0000
0000
ENDCHAR

STARTCHAR unknown_0xc9
ENCODING 201
SWIDTH 560 0
DWIDTH 14 0
BBX 12 21 1 0
BITMAP
0000
0000
0000
0000
0000
0000
0000
0000
0000
0000
0000
0000
0000
0000
0000
0000
0000
0000
0000
0000
0000
ENDCHAR

STARTCHAR unknown_0xca
ENCODING 202
SWIDTH 560 0
DWIDTH 14 0
BBX 12 21 1 0
BITMAP
0000
0000
0000
0000
0000
0000
0000
0000
0000
0000
0000
0000
0000
0000
0000
0000
0000
0000
0000
0000
0000
ENDCHAR

STARTCHAR unknown_0xcb
ENCODING 203
SWIDTH 560 0
DWIDTH 14 0
BBX 12 21 1 0
BITMAP
0000
0000
0000
0000
0000
0000
0000
0000
0000
0000
0000
0000
0000
0000
0000
0000
0000
0000
0000
0000
0000
ENDCHAR

STARTCHAR unknown_0xcc
ENCODING 204
SWIDTH 560 0
DWIDTH 14 0
BBX 12 21 1 0
BITMAP
0000
0000
0000
0000
0000
0000
0000
0000
0000
0000
0000
0000
0000
0000
0000
0000
0000
0000
0000
0000
0000
ENDCHAR

STARTCHAR unknown_0xcd
ENCODING 205
SWIDTH 560 0
DWIDTH 14 0
BBX 12 21 1 0
BITMAP
0000
0000
0000
0000
0000
0000
0000
0000
0000
0000
0000
0000
0000
0000
0000
0000
0000
0000
0000
0000
0000
ENDCHAR

STARTCHAR unknown_0xce
ENCODING 206
SWIDTH 560 0
DWIDTH 14 0
BBX 12 21 1 0
BITMAP
0000
0000
0000
0000
0000
0000
0000
0000
0000
0000
0000
0000
0000
0000
0000
0000
0000
0000
0000
0000
0000
ENDCHAR

STARTCHAR unknown_0xcf
ENCODING 207
SWIDTH 560 0
DWIDTH 14 0
BBX 12 21 1 0
BITMAP
0000
0000
0000
0000
0000
0000
0000
0000
0000
0000
0000
0000
0000
0000
0000
0000
0000
0000
0000
0000
0000
ENDCHAR

STARTCHAR unknown_0xd0
ENCODING 208
SWIDTH 560 0
DWIDTH 14 0
BBX 13 15 0 0
BITMAP
0000
0000
0000
0000
0000
0000
0000
0000
0000
0000
0000
0000
0000
0000
0000
ENDCHAR

STARTCHAR unknown_0xd1
ENCODING 209
SWIDTH 560 0
DWIDTH 14 0
BBX 11 20 2 0
BITMAP
0000
0000
0000
0000
0000
0000
0000
0000
0000
0000
0000
0000
0000
0000
0000
0000
0000
0000
0000
0000
ENDCHAR

STARTCHAR unknown_0xd2
ENCODING 210
SWIDTH 560 0
DWIDTH 14 0
BBX 12 21 1 0
BITMAP
0000
0000
0000
0000
0000
0000
0000
0000
0000
0000
0000
0000
0000
0000
0000
0000
0000
0000
0000
0000
0000
ENDCHAR

STARTCHAR unknown_0xd3
ENCODING 211
SWIDTH 560 0
DWIDTH 14 0
BBX 12 21 1 0
BITMAP
0000
0000
0000
0000
0000
0000
0000
0000
0000
0000
0000
0000
0000
0000
0000
0000
0000
0000
0000
0000
0000
ENDCHAR

STARTCHAR unknown_0xd4
ENCODING 212
SWIDTH 560 0
DWIDTH 14 0
BBX 12 21 1 0
BITMAP
0000
0000
0000
0000
0000
0000
0000
0000
0000
0000
0000
0000
0000
0000
0000
0000
0000
0000
0000
0000
0000
ENDCHAR

STARTCHAR unknown_0xd5
ENCODING 213
SWIDTH 560 0
DWIDTH 14 0
BBX 12 20 1 0
BITMAP
0000
0000
0000
0000
0000
0000
0000
0000
0000
0000
0000
0000
0000
0000
0000
0000
0000
0000
0000
0000
ENDCHAR

STARTCHAR unknown_0xd6
ENCODING 214
SWIDTH 560 0
DWIDTH 14 0
BBX 12 21 1 0
BITMAP
0000
0000
0000
0000
0000
0000
0000
0000
0000
0000
0000
0000
0000
0000
0000
0000
0000
0000
0000
0000
0000
ENDCHAR

STARTCHAR unknown_0xd7
ENCODING 215
SWIDTH 560 0
DWIDTH 14 0
BBX 10 11 2 1
BITMAP
0000
0000
0000
0000
0000
0000
0000
0000
0000
0000
0000
ENDCHAR

STARTCHAR unknown_0xd8
ENCODING 216
SWIDTH 560 0
DWIDTH 14 0
BBX 12 17 1 -1
BITMAP
0000
0000
0000
0000
0000
0000
0000
0000
0000
0000
0000
0000
0000
0000
0000
0000
0000
ENDCHAR

STARTCHAR unknown_0xd9
ENCODING 217
SWIDTH 560 0
DWIDTH 14 0
BBX 12 21 1 0
BITMAP
0000
0000
0000
0000
0000
0000
0000
0000
0000
0000
0000
0000
0000
0000
0000
0000
0000
0000
0000
0000
0000
ENDCHAR

STARTCHAR unknown_0xda
ENCODING 218
SWIDTH 560 0
DWIDTH 14 0
BBX 12 21 1 0
BITMAP
0000
0000
0000
0000
0000
0000
0000
0000
0000
0000
0000
0000
0000
0000
0000
0000
0000
0000
0000
0000
0000
ENDCHAR

STARTCHAR unknown_0xdb
ENCODING 219
SWIDTH 560 0
DWIDTH 14 0
BBX 12 21 1 0
BITMAP
0000
0000
0000
0000
0000
0000
0000
0000
0000
0000
0000
0000
0000
0000
0000
0000
0000
0000
0000
0000
0000
ENDCHAR

STARTCHAR unknown_0xdc
ENCODING 220
SWIDTH 560 0
DWIDTH 14 0
BBX 12 21 1 0
BITMAP
0000
0000
0000
0000
0000
0000
0000
0000
0000
0000
0000
0000
0000
0000
0000
0000
0000
0000
0000
0000
0000
ENDCHAR

STARTCHAR unknown_0xdd
ENCODING 221
SWIDTH 560 0
DWIDTH 14 0
BBX 12 21 1 0
BITMAP
0000
0000
0000
0000
0000
0000
0000
0000
0000
0000
0000
0000
0000
0000
0000
0000
0000
0000
0000
0000
0000
ENDCHAR

STARTCHAR unknown_0xde
ENCODING 222
SWIDTH 560 0
DWIDTH 14 0
BBX 11 15 1 0
BITMAP
0000
0000
0000
0000
0000
0000
0000
0000
0000
0000
0000
0000
0000
0000
0000
ENDCHAR

STARTCHAR dblunderscore
ENCODING 223
SWIDTH 560 0
DWIDTH 14 0
BBX 14 22 0 -6
BITMAP
0000
0000
0000
0000
0000
0000
0000
0000
0000
0000
0000
0000
0000
0000
FFFC
FFFC
FFFC
0000
0000
FFFC
FFFC
FFFC
ENDCHAR

STARTCHAR aleph
ENCODING 224
SWIDTH 560 0
DWIDTH 14 0
BBX 12 14 1 0
BITMAP
F0F0
F8F0
78F0
3CF0
1EF0
1FF0
3FE0
7F00
F780
F3C0
F3C0
F1E0
F0F0
F0F0
ENDCHAR

STARTCHAR beth
ENCODING 225
SWIDTH 560 0
DWIDTH 14 0
BBX 12 14 1 0
BITMAP
FF80
FFC0
FFC0
03C0
03C0
03C0
03C0
03C0
03C0
03C0
03C0
FFF0
FFF0
FFF0
ENDCHAR

STARTCHAR gimmel
ENCODING 226
SWIDTH 560 0
DWIDTH 14 0
BBX 13 14 1 0
BITMAP
1FC0
1FE0
1FE0
01E0
01E0
01E0
01E0
03E0
07E0
1FE0
FDE0
F9E0
F1E0
C1E0
ENDCHAR

STARTCHAR daleth
ENCODING 227
SWIDTH 560 0
DWIDTH 14 0
BBX 12 14 1 0
BITMAP
FFF0
FFF0
FFF0
0780
0780
0780
0780
0780
0780
0780
0780
0780
0780
0780
ENDCHAR

STARTCHAR he
ENCODING 228
SWIDTH 560 0
DWIDTH 14 0
BBX 12 14 1 0
BITMAP
FF80
FFE0
FFE0
01F0
00F0
00F0
F0F0
F0F0
F0F0
F0F0
F0F0
F0F0
F0F0
F0F0
ENDCHAR

STARTCHAR waw
ENCODING 229
SWIDTH 560 0
DWIDTH 14 0
BBX 12 14 1 0
BITMAP
3F80
3F80
3F80
0780
0780
0780
0780
0780
0780
0780
0780
0780
0780
0780
ENDCHAR

STARTCHAR zayin
ENCODING 230
SWIDTH 560 0
DWIDTH 14 0
BBX 12 14 1 0
BITMAP
7FC0
7FC0
7FC0
0F00
0F00
0F00
0780
0780
0780
0780
0F00
0F00
0F00
0F00
ENDCHAR

STARTCHAR het
ENCODING 231
SWIDTH 560 0
DWIDTH 14 0
BBX 12 14 1 0
BITMAP
FF80
FFE0
FFE0
F1F0
F0F0
F0F0
F0F0
F0F0
F0F0
F0F0
F0F0
F0F0
F0F0
F0F0
ENDCHAR

STARTCHAR teth
ENCODING 232
SWIDTH 560 0
DWIDTH 14 0
BBX 12 14 1 0
BITMAP
F3E0
F7F0
F7F0
F6F0
F0F0
F0F0
F0F0
F0F0
F0F0
F0F0
F9F0
7FE0
7FE0
1F80
ENDCHAR

STARTCHAR yod
ENCODING 233
SWIDTH 560 0
DWIDTH 14 0
BBX 11 14 1 0
BITMAP
3F80
3F80
3F80
0780
0780
0780
0780
0780
0000
0000
0000
0000
0000
0000
ENDCHAR

STARTCHAR kaphfinal
ENCODING 234
SWIDTH 560 0
DWIDTH 14 0
BBX 12 19 1 -5
BITMAP
FFF0
FFF0
FFF0
03C0
03C0
03C0
03C0
03C0
03C0
03C0
03C0
03C0
03C0
03C0
03C0
03C0
03C0
03C0
03C0
ENDCHAR

STARTCHAR kaph
ENCODING 235
SWIDTH 560 0
DWIDTH 14 0
BBX 11 14 1 0
BITMAP
FF00
FFC0
FFC0
03E0
01E0
01E0
01E0
01E0
01E0
01E0
03E0
FFC0
FFC0
FF00
ENDCHAR

STARTCHAR lamed
ENCODING 236
SWIDTH 560 0
DWIDTH 14 0
BBX 11 20 1 0
BITMAP
0000
F000
F000
F000
F000
F000
FFE0
FFE0
FFE0
01E0
01E0
03C0
03C0
03C0
0780
0780
0780
0F00
0F00
0F00
ENDCHAR

STARTCHAR memfinal
ENCODING 237
SWIDTH 560 0
DWIDTH 14 0
BBX 13 14 1 0
BITMAP
FF80
FFE0
FFE0
F1F0
F0F0
F0F0
F0F0
F0F0
F0F0
F0F0
F0F0
FFF0
FFF0
FFF0
ENDCHAR

STARTCHAR mem
ENCODING 238
SWIDTH 560 0
DWIDTH 14 0
BBX 12 14 1 0
BITMAP
6380
F7E0
FFE0
7CF0
78F0
38F0
38F0
70F0
70F0
70F0
F0F0
F3F0
F3F0
F3F0
ENDCHAR

STARTCHAR nunfinal
ENCODING 239
SWIDTH 560 0
DWIDTH 14 0
BBX 8 19 5 -5
BITMAP
FE
FE
FE
1E
1E
1E
1E
1E
1E
1E
1E
1E
1E
1E
1E
1E
1E
1E
1E
ENDCHAR

STARTCHAR nun
ENCODING 240
SWIDTH 560 0
DWIDTH 14 0
BBX 12 14 1 0
BITMAP
3F00
3F80
3FC0
07C0
03C0
03C0
03C0
03C0
03C0
03C0
03C0
7FC0
7FC0
7FC0
ENDCHAR

STARTCHAR samekh
ENCODING 241
SWIDTH 560 0
DWIDTH 14 0
BBX 12 14 1 0
BITMAP
FFF0
FFF0
FFF0
78F0
78F0
78F0
78F0
78F0
78F0
78F0
7DF0
3FE0
3FE0
0F80
ENDCHAR

STARTCHAR ayin
ENCODING 242
SWIDTH 560 0
DWIDTH 14 0
BBX 12 14 1 0
BITMAP
3CF0
3CF0
3CF0
3CF0
3CF0
3CF0
3CF0
3CF0
3CF0
3CF0
3DF0
FFE0
FFE0
FF80
ENDCHAR

STARTCHAR pefinal
ENCODING 243
SWIDTH 560 0
DWIDTH 14 0
BBX 12 19 1 -5
BITMAP
FF80
FFE0
FFE0
E1F0
E0F0
E0F0
E0F0
FCF0
7CF0
3CF0
00F0
00F0
00F0
00F0
00F0
00F0
00F0
00F0
00F0
ENDCHAR

STARTCHAR pe
ENCODING 244
SWIDTH 560 0
DWIDTH 14 0
BBX 12 14 1 0
BITMAP
FF80
FFE0
FFE0
E1F0
E0F0
E0F0
FCF0
7CF0
3CF0
00F0
00F0
FFF0
FFF0
FFF0
ENDCHAR

STARTCHAR zadikfinal
ENCODING 245
SWIDTH 560 0
DWIDTH 14 0
BBX 12 19 1 -5
BITMAP
40F0
E0F0
F0F0
F8F0
FCF0
7EF0
3FF0
1FE0
0F80
0F80
0780
0780
0780
0780
0780
0780
0780
0780
0780
ENDCHAR

STARTCHAR zadik
ENCODING 246
SWIDTH 560 0
DWIDTH 14 0
BBX 12 14 1 0
BITMAP
70F0
F8F0
FCF0
7CF0
3EF0
1FF0
0FE0
0780
07C0
03E0
01F0
FFF0
FFF0
FFF0
ENDCHAR

STARTCHAR kof
ENCODING 247
SWIDTH 560 0
DWIDTH 14 0
BBX 12 19 1 -5
BITMAP
FFF0
FFF0
FFF0
00F0
00F0
F1E0
F1E0
F1E0
F3C0
F3C0
F3C0
F780
F780
F780
F000
F000
F000
F000
F000
ENDCHAR

STARTCHAR resh
ENCODING 248
SWIDTH 560 0
DWIDTH 14 0
BBX 12 14 1 0
BITMAP
FF00
FFC0
FFC0
03E0
01E0
01E0
01E0
01E0
01E0
01E0
01E0
01E0
01E0
01E0
ENDCHAR

STARTCHAR shin
ENCODING 249
SWIDTH 560 0
DWIDTH 14 0
BBX 12 14 1 0
BITMAP
F6F0
F6F0
F6F0
F6F0
F6F0
F6F0
F6F0
F6F0
F6F0
F0F0
F0F0
7FE0
7FE0
1F80
ENDCHAR

STARTCHAR taf
ENCODING 250
SWIDTH 560 0
DWIDTH 14 0
BBX 14 14 0 0
BITMAP
FFC0
FFF0
FFF0
3CF8
3C78
3C78
3C78
3C78
3C78
3C78
3C78
FC78
FC78
F878
ENDCHAR

STARTCHAR unknown_0xfb
ENCODING 251
SWIDTH 560 0
DWIDTH 14 0
BBX 13 19 0 0
BITMAP
0600
0F00
1F80
39C0
39C0
0000
0000
FDF0
FDF0
3CF0
3CF0
3CF0
3CF0
3CF0
3CF0
3CF0
3FF8
3FF8
1EF8
ENDCHAR

STARTCHAR unknown_0xfc
ENCODING 252
SWIDTH 560 0
DWIDTH 14 0
BBX 13 18 0 0
BITMAP
1860
3CF0
3CF0
1860
0000
0000
FDF0
FDF0
3CF0
3CF0
3CF0
3CF0
3CF0
3CF0
3CF0
3FF8
3FF8
1EF8
ENDCHAR

STARTCHAR unknown_0xfd
ENCODING 253
SWIDTH 560 0
DWIDTH 14 0
BBX 14 24 0 -5
BITMAP
0078
00F8
00F0
01C0
0380
0000
0000
FCFC
FCFC
3CF0
3CF0
3CE0
1CE0
1CE0
1FC0
0FC0
0F80
0F80
0780
0700
0F00
0F00
3FC0
3FC0
ENDCHAR

STARTCHAR unknown_0xfe
ENCODING 254
SWIDTH 560 0
DWIDTH 14 0
BBX 13 21 0 -5
BITMAP
FE00
FE00
3C00
3C00
3DE0
3FF0
3FF8
3C78
3C78
3C78
3C78
3C78
3C78
3FF8
3FF0
3DC0
3C00
3C00
3C00
FF00
FF00
ENDCHAR

STARTCHAR unknown_0xff
ENCODING 255
SWIDTH 560 0
DWIDTH 14 0
BBX 14 23 0 -5
BITMAP
1860
3CF0
3CF0
1860
0000
0000
FCFC
FCFC
3CF0
3CF0
3CE0
1CE0
1CE0
1FC0
0FC0
0F80
0F80
0780
0700
0F00
0F00
3FC0
3FC0
ENDCHAR
ENDFONT
